<?xml version="1.0" encoding="UTF-8" standalone="no"?>
<svg width="360" height="640" viewBox="0 0 360 640" xmlns="http://www.w3.org/2000/svg">
  <!-- Fundo do telefone -->
  <rect width="360" height="640" fill="#121212" />
  
  <!-- Status bar -->
  <rect x="0" y="0" width="360" height="30" fill="#1e1e1e" />
  <text x="310" y="20" font-family="Arial" font-size="14" fill="#ffffff">21:00</text>
  <text x="20" y="20" font-family="Arial" font-size="14" fill="#ffffff">📶 📶</text>
  
  <!-- Header with back button -->
  <rect x="0" y="30" width="360" height="50" fill="#1e1e1e" />
  <text x="50" y="60" font-family="Arial" font-size="18" font-weight="bold" fill="#ffffff">Documento Digitalizado</text>
  <text x="20" y="60" font-family="Arial" font-size="20" fill="#ffffff">←</text>
  
  <!-- Document image preview -->
  <rect x="20" y="100" width="320" height="160" rx="10" fill="#2d2d2d" />
  <rect x="70" y="120" width="220" height="120" fill="#1a1a1a" />
  <text x="180" y="180" font-family="Arial" font-size="14" fill="#666666" text-anchor="middle">Visualização do documento</text>
  
  <!-- Recognized text section -->
  <text x="20" y="280" font-family="Arial" font-size="16" font-weight="bold" fill="#ffffff">Texto Reconhecido</text>
  
  <rect x="20" y="290" width="320" height="160" rx="5" fill="#2d2d2d" />
  <text x="30" y="310" font-family="Arial" font-size="14" font-weight="bold" fill="#ffffff">LAUDO MÉDICO</text>
  <text x="30" y="330" font-family="Arial" font-size="14" fill="#b0b0b0">Paciente: Maria Silva</text>
  <text x="30" y="350" font-family="Arial" font-size="14" fill="#b0b0b0">Data: 05/05/2023</text>
  <text x="30" y="370" font-family="Arial" font-size="14" fill="#b0b0b0">Diagnóstico: Artrose de joelho direito</text>
  <text x="30" y="390" font-family="Arial" font-size="14" fill="#b0b0b0">CID: M17.1</text>
  <text x="30" y="410" font-family="Arial" font-size="14" fill="#b0b0b0">Conduta: Artroplastia total do joelho direito</text>
  <text x="30" y="430" font-family="Arial" font-size="14" fill="#b0b0b0">Dr. Carlos Oliveira - CRM 98765-RJ</text>
  
  <!-- Document info form -->
  <text x="20" y="470" font-family="Arial" font-size="16" font-weight="bold" fill="#ffffff">Informações do Documento</text>
  
  <!-- Document type -->
  <text x="20" y="495" font-family="Arial" font-size="14" fill="#b0b0b0">Tipo de Documento</text>
  <rect x="20" y="505" width="320" height="40" rx="5" fill="#333333" />
  <text x="35" y="530" font-family="Arial" font-size="14" fill="#ffffff">Laudo Médico</text>
  <text x="320" y="530" font-family="Arial" font-size="14" fill="#ffffff" text-anchor="end">▼</text>
  
  <!-- Patient ID -->
  <rect x="20" y="555" width="320" height="40" rx="5" fill="#333333" />
  <text x="35" y="580" font-family="Arial" font-size="14" fill="#b0b0b0">ID do Paciente</text>
  <text x="320" y="580" font-family="Arial" font-size="14" fill="#ffffff" text-anchor="end">1</text>
  
  <!-- Action buttons -->
  <rect x="20" y="605" width="150" height="40" rx="5" fill="#333333" />
  <text x="95" y="631" font-family="Arial" font-size="14" fill="#ffffff" text-anchor="middle">Digitalizar novamente</text>
  
  <rect x="190" y="605" width="150" height="40" rx="5" fill="#4f46e5" />
  <text x="265" y="631" font-family="Arial" font-size="14" fill="#ffffff" text-anchor="middle">Salvar Documento</text>
</svg>